<?xml version="1.0" encoding="UTF-8" standalone="no"?>
<!-- Generator: Adobe Illustrator 16.0.0, SVG Export Plug-In . SVG Version: 6.00 Build 0)  -->

<svg
   xmlns:dc="http://purl.org/dc/elements/1.1/"
   xmlns:cc="http://creativecommons.org/ns#"
   xmlns:rdf="http://www.w3.org/1999/02/22-rdf-syntax-ns#"
   xmlns:svg="http://www.w3.org/2000/svg"
   xmlns="http://www.w3.org/2000/svg"
   xmlns:sodipodi="http://sodipodi.sourceforge.net/DTD/sodipodi-0.dtd"
   xmlns:inkscape="http://www.inkscape.org/namespaces/inkscape"
   version="1.1"
   id="Capa_1"
   x="0px"
   y="0px"
   width="16"
   height="16.000002"
   viewBox="0 0 16 16.000002"
   xml:space="preserve"
   inkscape:version="0.91 r13725"
   sodipodi:docname="favicon.svg"><metadata
     id="metadata4087"><rdf:RDF><cc:Work
         rdf:about=""><dc:format>image/svg+xml</dc:format><dc:type
           rdf:resource="http://purl.org/dc/dcmitype/StillImage" /><dc:title></dc:title></cc:Work></rdf:RDF></metadata><defs
     id="defs4085" /><sodipodi:namedview
     pagecolor="#ffffff"
     bordercolor="#666666"
     borderopacity="1"
     objecttolerance="10"
     gridtolerance="10"
     guidetolerance="10"
     inkscape:pageopacity="0"
     inkscape:pageshadow="2"
     inkscape:window-width="1280"
     inkscape:window-height="718"
     id="namedview4083"
     showgrid="false"
     inkscape:zoom="4.7530814"
     inkscape:cx="24.826"
     inkscape:cy="24.825998"
     inkscape:window-x="0"
     inkscape:window-y="1"
     inkscape:window-maximized="1"
     inkscape:current-layer="Capa_1"
     fit-margin-top="0"
     fit-margin-left="0"
     fit-margin-right="0"
     fit-margin-bottom="0" /><g
     id="g4053"
     transform="translate(0,-33.652)" /><g
     id="g4055"
     transform="translate(0,-33.652)" /><g
     id="g4057"
     transform="translate(0,-33.652)" /><g
     id="g4059"
     transform="translate(0,-33.652)" /><g
     id="g4061"
     transform="translate(0,-33.652)" /><g
     id="g4063"
     transform="translate(0,-33.652)" /><g
     id="g4065"
     transform="translate(0,-33.652)" /><g
     id="g4067"
     transform="translate(0,-33.652)" /><g
     id="g4069"
     transform="translate(0,-33.652)" /><g
     id="g4071"
     transform="translate(0,-33.652)" /><g
     id="g4073"
     transform="translate(0,-33.652)" /><g
     id="g4075"
     transform="translate(0,-33.652)" /><g
     id="g4077"
     transform="translate(0,-33.652)" /><g
     id="g4079"
     transform="translate(0,-33.652)" /><g
     id="g4081"
     transform="translate(0,-33.652)" /><g
     id="g3"
     transform="matrix(0.03125,0,0,0.03124982,-3.125e-5,0)"><path
       d="m 96.001,289.143 0,221.717 c 5.227,0.748 10.567,1.143 16,1.143 l 16,0 0,-224.003 -16,0 c -5.433,0 -10.773,0.395 -16,1.143 z m 288,-1.143 0,224 16,0 c 5.434,0 10.773,-0.395 16,-1.143 l 0,-221.714 c -5.227,-0.748 -10.566,-1.143 -16,-1.143 l -16,0 z m 128,-32 c 0,-141.385 -114.615,-256 -256,-256 -141.385,0 -256,114.615 -256,256 0,30.709 5.414,60.152 15.328,87.438 -9.736,16.6 -15.328,35.925 -15.328,56.562 0,44.677 26.163,83.239 64,101.216 l 0,-202.432 c -10.063,4.78 -19.29,11.03 -27.429,18.452 -2.996,-14.61 -4.571,-29.739 -4.571,-45.236 0,-123.712 100.288,-224 224,-224 123.713,0 224,100.288 224,224 0,15.497 -1.574,30.626 -4.57,45.236 -8.141,-7.422 -17.365,-13.672 -27.43,-18.452 l 0,202.432 c 37.838,-17.977 64,-56.539 64,-101.216 0,-20.637 -5.592,-39.962 -15.328,-56.562 9.914,-27.286 15.328,-56.729 15.328,-87.438 z"
       id="path5"
       inkscape:connector-curvature="0" /></g></svg>