<?xml version="1.0" encoding="UTF-8" standalone="no"?>
<!-- Generator: Adobe Illustrator 16.0.0, SVG Export Plug-In . SVG Version: 6.00 Build 0)  -->

<svg
   xmlns:dc="http://purl.org/dc/elements/1.1/"
   xmlns:cc="http://creativecommons.org/ns#"
   xmlns:rdf="http://www.w3.org/1999/02/22-rdf-syntax-ns#"
   xmlns:svg="http://www.w3.org/2000/svg"
   xmlns="http://www.w3.org/2000/svg"
   xmlns:sodipodi="http://sodipodi.sourceforge.net/DTD/sodipodi-0.dtd"
   xmlns:inkscape="http://www.inkscape.org/namespaces/inkscape"
   version="1.1"
   id="Capa_1"
   x="0px"
   y="0px"
   width="30"
   height="27"
   viewBox="0 0 30 27"
   xml:space="preserve"
   inkscape:version="0.91 r13725"
   sodipodi:docname="hamburger_menu.svg"><metadata
     id="metadata45"><rdf:RDF><cc:Work
         rdf:about=""><dc:format>image/svg+xml</dc:format><dc:type
           rdf:resource="http://purl.org/dc/dcmitype/StillImage" /><dc:title></dc:title></cc:Work></rdf:RDF></metadata><defs
     id="defs43" /><sodipodi:namedview
     pagecolor="#ffffff"
     bordercolor="#666666"
     borderopacity="1"
     objecttolerance="10"
     gridtolerance="10"
     guidetolerance="10"
     inkscape:pageopacity="0"
     inkscape:pageshadow="2"
     inkscape:window-width="902"
     inkscape:window-height="658"
     id="namedview41"
     showgrid="false"
     inkscape:zoom="1.9032258"
     inkscape:cx="40.983051"
     inkscape:cy="61.999996"
     inkscape:window-x="300"
     inkscape:window-y="48"
     inkscape:window-maximized="0"
     inkscape:current-layer="Capa_1"
     fit-margin-top="0"
     fit-margin-left="0"
     fit-margin-right="0"
     fit-margin-bottom="0" /><g
     id="g3"
     transform="matrix(0.24193548,0,0,0.24107143,0,-1.4464286)"><path
       d="M 112,6 12,6 C 5.4,6 0,11.4 0,18 0,24.6 5.4,30 12,30 l 100,0 c 6.6,0 12,-5.4 12,-12 0,-6.6 -5.4,-12 -12,-12 z"
       id="path5"
       inkscape:connector-curvature="0" /><path
       d="M 112,50 12,50 C 5.4,50 0,55.4 0,62 0,68.6 5.4,74 12,74 l 100,0 c 6.6,0 12,-5.4 12,-12 0,-6.6 -5.4,-12 -12,-12 z"
       id="path7"
       inkscape:connector-curvature="0" /><path
       d="M 112,94 12,94 c -6.6,0 -12,5.4 -12,12 0,6.6 5.4,12 12,12 l 100,0 c 6.6,0 12,-5.4 12,-12 0,-6.6 -5.4,-12 -12,-12 z"
       id="path9"
       inkscape:connector-curvature="0" /></g><g
     id="g11"
     transform="translate(0,-96.999996)" /><g
     id="g13"
     transform="translate(0,-96.999996)" /><g
     id="g15"
     transform="translate(0,-96.999996)" /><g
     id="g17"
     transform="translate(0,-96.999996)" /><g
     id="g19"
     transform="translate(0,-96.999996)" /><g
     id="g21"
     transform="translate(0,-96.999996)" /><g
     id="g23"
     transform="translate(0,-96.999996)" /><g
     id="g25"
     transform="translate(0,-96.999996)" /><g
     id="g27"
     transform="translate(0,-96.999996)" /><g
     id="g29"
     transform="translate(0,-96.999996)" /><g
     id="g31"
     transform="translate(0,-96.999996)" /><g
     id="g33"
     transform="translate(0,-96.999996)" /><g
     id="g35"
     transform="translate(0,-96.999996)" /><g
     id="g37"
     transform="translate(0,-96.999996)" /><g
     id="g39"
     transform="translate(0,-96.999996)" /></svg>